<?xml version="1.0" encoding="utf-8"?>
<!-- Generator: Adobe Illustrator 13.0.0, SVG Export Plug-In . SVG Version: 6.00 Build 14948)  -->
<!DOCTYPE svg PUBLIC "-//W3C//DTD SVG 1.1//EN" "http://www.w3.org/Graphics/SVG/1.1/DTD/svg11.dtd">
<svg version="1.1" id="Layer_1" xmlns="http://www.w3.org/2000/svg" xmlns:xlink="http://www.w3.org/1999/xlink" x="0px" y="0px"
	 width="800px" height="600px" viewBox="0 0 800 600" enable-background="new 0 0 800 600" xml:space="preserve">
<rect x="467.119" y="41.915" fill="#666666" width="40.789" height="486.072"/>
<rect x="500.734" y="41.915" fill="#666666" width="293.414" height="40.788"/>
<rect x="753.379" y="65.408" fill="#666666" width="40.787" height="254.99"/>
<rect x="560.705" y="279.594" fill="#666666" width="198.9" height="40.805"/>
<text transform="matrix(1 0 0 1 550.7432 467.3428)" fill="#666666" font-family="'GaramondPremrPro-Smbd'" font-size="113.2878">Press</text>
<rect x="521.4" y="95.995" fill="#666666" width="40.787" height="224.397"/>
<rect x="274.244" y="493.394" fill="#666666" width="199.303" height="34.5"/>
<rect x="274.244" y="341.789" fill="#666666" width="38.383" height="168.452"/>
<rect x="297.17" y="341.789" fill="#666666" width="131.929" height="36.01"/>
<rect x="417.541" y="341.789" fill="#666666" width="37.631" height="140.694"/>
<text transform="matrix(1 0 0 1 -1.6709 155.8135)" fill="#4E6A82" font-family="'AGaramondPro-Semibold'" font-size="113.2878">Princeton</text>
<text transform="matrix(1 0 0 1 134.2783 261.1211)" fill="#C25C31" font-family="'GaramondPremrPro-Smbd'" font-size="113.2878">Square</text>
<rect x="576.554" y="95.993" fill="#4E6A82" width="162.484" height="170.622"/>
<rect x="324.295" y="388.162" fill="#C25C31" width="82.436" height="94.407"/>
</svg>
