<?xml version="1.0" encoding="utf-8"?>
<!-- Generator: Adobe Illustrator 13.0.0, SVG Export Plug-In . SVG Version: 6.00 Build 14948)  -->
<!DOCTYPE svg PUBLIC "-//W3C//DTD SVG 1.1//EN" "http://www.w3.org/Graphics/SVG/1.1/DTD/svg11.dtd">
<svg version="1.1" id="Layer_1" xmlns="http://www.w3.org/2000/svg" xmlns:xlink="http://www.w3.org/1999/xlink" x="0px" y="0px"
	 width="30px" height="30px" viewBox="0 0 30 30" enable-background="new 0 0 30 30" xml:space="preserve">
<path fill="#FFFFFF" stroke="#006633" d="M28.207,22.409c0,6.269-4.699,5.822-10.586,5.822h-4.23
	c-5.888,0-10.513,1.076-10.513-5.189L2.731,7.945c0-6.267,4.772-5.376,10.66-5.376h4.23c5.887,0,10.771-1.151,10.771,5.117
	L28.207,22.409z"/>
<path fill="#FFFFFF" stroke="#006633" d="M26.48,21.524c0,5.412-4.06,5.027-9.146,5.027h-3.654c-5.085,0-9.08,0.93-9.08-4.483
	L4.473,9.03c0-5.415,4.123-4.645,9.208-4.645h3.654c5.086,0,9.306-0.994,9.306,4.42L26.48,21.524z"/>
</svg>
