<?xml version="1.0" encoding="utf-8"?>
<!-- Generator: Adobe Illustrator 13.0.0, SVG Export Plug-In . SVG Version: 6.00 Build 14948)  -->
<!DOCTYPE svg PUBLIC "-//W3C//DTD SVG 1.1//EN" "http://www.w3.org/Graphics/SVG/1.1/DTD/svg11.dtd">
<svg version="1.1" id="Layer_1" xmlns="http://www.w3.org/2000/svg" xmlns:xlink="http://www.w3.org/1999/xlink" x="0px" y="0px"
	 width="30px" height="30px" viewBox="0 0 30 30" enable-background="new 0 0 30 30" xml:space="preserve">
<rect x="19.081" y="13.5" transform="matrix(0.8263 -0.5632 0.5632 0.8263 -7.9145 16.1991)" fill="#FFFFFF" stroke="#3366FF" width="6.454" height="14.864"/>
<line fill="none" stroke="#3366FF" x1="9.483" y1="4.069" x2="12.175" y2="6.804"/>
<line fill="none" stroke="#3366FF" x1="17.646" y1="3.428" x2="17.175" y2="6.249"/>
<line fill="none" stroke="#3366FF" x1="13.457" y1="9.796" x2="17.816" y2="11.462"/>
<line fill="none" stroke="#3366FF" x1="7.175" y1="8.813" x2="9.098" y2="12.104"/>
<line fill="none" stroke="#3366FF" x1="10.936" y1="12.531" x2="13.372" y2="12.702"/>
<line fill="none" stroke="#3366FF" x1="9.526" y1="7.36" x2="12.303" y2="8.642"/>
<line fill="none" stroke="#3366FF" x1="6.363" y1="11.804" x2="3.115" y2="11.419"/>
<line fill="none" stroke="#3366FF" x1="6.107" y1="7.659" x2="2.56" y2="4.368"/>
<line fill="none" stroke="#3366FF" x1="6.534" y1="4.197" x2="6.021" y2="1.633"/>
<line fill="none" stroke="#3366FF" x1="12.303" y1="2.958" x2="12.132" y2="0.736"/>
<line fill="none" stroke="#3366FF" x1="15.851" y1="3.214" x2="16.277" y2="1.505"/>
<line fill="none" stroke="#3366FF" x1="20.979" y1="7.231" x2="23.757" y2="4.54"/>
<line fill="none" stroke="#3366FF" x1="21.448" y1="3.984" x2="23.072" y2="0.736"/>
<line fill="none" stroke="#3366FF" x1="16.192" y1="8.172" x2="14.868" y2="6.292"/>
<line fill="none" stroke="#3366FF" x1="20.723" y1="10.223" x2="19.525" y2="8.77"/>
<line fill="none" stroke="#3366FF" x1="12.517" y1="15.65" x2="10.124" y2="15.693"/>
<line fill="none" stroke="#3366FF" x1="7.261" y1="15.095" x2="3.457" y2="14.625"/>
<line fill="none" stroke="#3366FF" x1="2.944" y1="17.531" x2="1.235" y2="17.787"/>
<line fill="none" stroke="#3366FF" x1="2.218" y1="13.599" x2="0.936" y2="12.402"/>
<line fill="none" stroke="#3366FF" x1="4.269" y1="8.898" x2="0.808" y2="7.702"/>
<line fill="none" stroke="#3366FF" x1="19.397" y1="5.864" x2="19.397" y2="3.941"/>
<line fill="none" stroke="#3366FF" x1="19.312" y1="2.231" x2="20.167" y2="1.078"/>
<line fill="none" stroke="#3366FF" x1="25.979" y1="5.223" x2="26.406" y2="2.189"/>
<line fill="none" stroke="#3366FF" x1="24.27" y1="9.368" x2="24.91" y2="7.702"/>
<line fill="none" stroke="#3366FF" x1="22.432" y1="8.086" x2="24.099" y2="6.89"/>
<line fill="none" stroke="#3366FF" x1="26.064" y1="7.231" x2="27.218" y2="6.462"/>
<line fill="none" stroke="#3366FF" x1="8.03" y1="16.933" x2="6.876" y2="17.189"/>
<line fill="none" stroke="#3366FF" x1="6.021" y1="16.591" x2="4.782" y2="17.403"/>
<line fill="none" stroke="#3366FF" x1="3.329" y1="19.583" x2="1.235" y2="20.608"/>
</svg>
