<?xml version="1.0" encoding="utf-8"?>
<!-- Generator: Adobe Illustrator 13.0.0, SVG Export Plug-In . SVG Version: 6.00 Build 14948)  -->
<!DOCTYPE svg PUBLIC "-//W3C//DTD SVG 1.1//EN" "http://www.w3.org/Graphics/SVG/1.1/DTD/svg11.dtd">
<svg version="1.1" id="Layer_1" xmlns="http://www.w3.org/2000/svg" xmlns:xlink="http://www.w3.org/1999/xlink" x="0px" y="0px"
	 width="30px" height="30px" viewBox="0 0 30 30" enable-background="new 0 0 30 30" xml:space="preserve">
<path fill="none" stroke="#3300CC" stroke-width="2" d="M23.885,15.496c0,5.125-4.161,9.288-9.295,9.288
	c-5.133,0-9.294-4.162-9.294-9.288c0-5.134,4.161-9.295,9.294-9.295C19.724,6.201,23.885,10.362,23.885,15.496z"/>
<polygon fill="#3300CC" points="11.36,6.36 6.678,10.189 4.098,5.987 7.603,3.167 "/>
<polygon fill="#3300CC" points="17.995,24.321 22.662,20.474 25.259,24.665 21.766,27.499 "/>
<polygon fill="#3300CC" points="10.712,24.335 16.742,24.814 15.693,29.632 11.213,29.24 "/>
<polygon fill="#3300CC" points="23.604,11.929 19.666,7.337 23.807,4.66 26.708,8.098 "/>
<polygon fill="#3300CC" points="5.684,19.159 9.609,23.761 5.462,26.427 2.569,22.982 "/>
<polygon fill="#3300CC" points="23.301,19.456 23.949,13.449 28.736,14.631 28.219,19.093 "/>
<polygon fill="#3300CC" points="5.965,11.616 5.33,17.626 0.54,16.454 1.048,11.989 "/>
<polygon fill="#3300CC" points="18.675,6.876 12.658,6.255 13.82,1.464 18.29,1.96 "/>
</svg>
